<svg width="99" height="123" viewBox="0 0 99 123" fill="none" xmlns="http://www.w3.org/2000/svg">
<path d="M85.1277 43.3532L85.1246 43.3548L75.5946 48.3648L72.2708 50.1122L76.0234 50.2493C83.8962 50.537 91.3933 54.861 95.317 62.2395L96.1999 61.77L95.317 62.2395C101.154 73.2144 96.9097 86.7973 85.798 92.583L85.7948 92.5847L34.9777 119.283C34.977 119.284 34.9762 119.284 34.9754 119.284C23.8674 125.072 10.1218 120.85 4.28279 109.87C-1.55363 98.896 2.69955 85.3127 13.802 79.5268L13.8052 79.5251L23.3352 74.5151L26.659 72.7678L22.9064 72.6306C15.0336 72.343 7.5365 68.0189 3.61281 60.6405L3.61279 60.6404C-2.22363 49.666 2.02955 36.0827 13.132 30.2968L13.135 30.2952L63.952 3.59678C63.9525 3.59653 63.953 3.59629 63.9534 3.59604C75.0616 -2.19189 88.8078 2.02996 94.647 13.0095C100.483 23.9839 96.2302 37.5672 85.1277 43.3532ZM36.5852 41.6791L35.0599 40.7374V42.53V80.42V82.2081L36.5834 81.272L67.3434 62.372L68.7268 61.522L67.3452 60.6691L36.5852 41.6791Z" stroke="white" stroke-width="2"/>
<mask id="path-2-inside-1" fill="white">
<path d="M67 61.5L36 42.5V80.5L67 61.5Z"/>
</mask>
<path d="M36 42.5L50.1092 19.4798L9 -5.71618V42.5H36ZM67 61.5L81.1092 84.5202L118.669 61.5L81.1092 38.4798L67 61.5ZM36 80.5H9V128.716L50.1092 103.52L36 80.5ZM21.8908 65.5202L52.8908 84.5202L81.1092 38.4798L50.1092 19.4798L21.8908 65.5202ZM52.8908 38.4798L21.8908 57.4798L50.1092 103.52L81.1092 84.5202L52.8908 38.4798ZM63 80.5V42.5H9V80.5H63Z" fill="white" mask="url(#path-2-inside-1)"/>
</svg>
